<?xml version="1.0" encoding="UTF-8" standalone="no"?>
<!-- Created with Inkscape (http://www.inkscape.org/) -->

<svg
   width="210mm"
   height="297mm"
   viewBox="0 0 210 297"
   version="1.1"
   id="svg1"
   inkscape:version="1.3.2 (091e20e, 2023-11-25)"
   sodipodi:docname="drawing.svg"
   xmlns:inkscape="http://www.inkscape.org/namespaces/inkscape"
   xmlns:sodipodi="http://sodipodi.sourceforge.net/DTD/sodipodi-0.dtd"
   xmlns="http://www.w3.org/2000/svg"
   xmlns:svg="http://www.w3.org/2000/svg">
  <sodipodi:namedview
     id="namedview1"
     pagecolor="#ffffff"
     bordercolor="#000000"
     borderopacity="0.25"
     inkscape:showpageshadow="2"
     inkscape:pageopacity="0.0"
     inkscape:pagecheckerboard="0"
     inkscape:deskcolor="#d1d1d1"
     inkscape:document-units="mm"
     inkscape:zoom="0.52580127"
     inkscape:cx="406.04694"
     inkscape:cy="648.53399"
     inkscape:window-width="1712"
     inkscape:window-height="1041"
     inkscape:window-x="0"
     inkscape:window-y="43"
     inkscape:window-maximized="1"
     inkscape:current-layer="layer1" />
  <defs
     id="defs1" />
  <g
     inkscape:label="Layer 1"
     inkscape:groupmode="layer"
     id="layer1">
    <path
       style="fill:#000000;stroke-width:0.264583"
       d="m 40.759221,134.85767 c 25.663212,0 51.326425,0 76.989639,0"
       id="path11" />
    <path
       sodipodi:type="spiral"
       style="fill:none;fill-rule:evenodd;stroke:#000000;stroke-width:0.264583"
       id="path12"
       sodipodi:cx="117.24566"
       sodipodi:cy="197.75769"
       sodipodi:expansion="1"
       sodipodi:revolution="3"
       sodipodi:radius="34.760902"
       sodipodi:argument="-20.806234"
       sodipodi:t0="0"
       d="m 117.24566,197.75769 c -0.65597,-1.6147 1.85295,-1.68087 2.68373,-1.09027 2.25138,1.60051 1.30722,4.95117 -0.5032,6.45774 -3.23841,2.69491 -8.03834,1.14416 -10.23174,-2.09667 -3.2189,-4.75605 -0.99444,-11.17396 3.69015,-14.00574 6.24381,-3.77431 14.32764,-0.85151 17.77973,5.28361 4.34412,7.72042 0.7123,17.49014 -6.87708,21.55374 -9.19175,4.92156 -20.65765,0.57529 -25.327737,-8.47055 -5.503541,-10.66021 -0.439668,-23.82828 10.064017,-29.10174 12.12693,-6.08841 27.00101,-0.30497 32.87575,11.65749 6.67524,13.59251 0.17091,30.1752 -13.25096,36.64974 -15.05733,7.26346 -33.350462,0.0373 -40.423748,-14.84443 -7.852687,-16.52158 0.0959,-36.52651 16.437898,-44.19774" />
    <path
       sodipodi:type="spiral"
       style="fill:none;fill-rule:evenodd;stroke:#000000;stroke-width:0.264583"
       id="path13"
       sodipodi:cx="56.861629"
       sodipodi:cy="68.435234"
       sodipodi:expansion="1"
       sodipodi:revolution="3"
       sodipodi:radius="50.570999"
       sodipodi:argument="-18.021929"
       sodipodi:t0="0"
       d="m 56.861629,68.435234 c 1.715616,1.866996 -1.670248,3.233726 -3.103069,2.851466 -3.882857,-1.035899 -4.300823,-6.08308 -2.599863,-9.057606 3.042618,-5.320728 10.373709,-5.649342 15.012142,-2.348259 6.807087,4.844473 7.040702,14.723582 2.096656,20.966678 -6.589636,8.321066 -19.09462,8.450486 -26.921215,1.845053 C 31.49731,74.380301 31.476444,59.216787 39.752832,49.816815 49.776646,38.43219 67.615478,38.522083 78.583118,48.47497 91.508103,60.204102 91.306228,80.728042 79.67336,93.259793 66.242753,107.7282 43.027486,107.4136 28.934001,94.098431 12.920087,78.968885 13.347863,53.058087 28.346966,37.404536 45.173694,19.843617 73.782997,20.384892 90.995398,37.069105 c 19.109022,18.522638 18.454032,49.832632 0.08383,68.602965" />
    <path
       sodipodi:type="spiral"
       style="fill:none;fill-rule:evenodd;stroke:#000000;stroke-width:0.264583"
       id="path14"
       sodipodi:cx="149.95367"
       sodipodi:cy="88.563248"
       sodipodi:expansion="1"
       sodipodi:revolution="3"
       sodipodi:radius="39.609241"
       sodipodi:argument="-17.753771"
       sodipodi:t0="0"
       d="m 149.95367,88.563248 c 0.90827,1.766075 -1.93252,2.095647 -2.93533,1.509602 -2.71754,-1.588147 -1.9858,-5.486757 -0.0839,-7.38027 3.40211,-3.387052 9.00709,-2.11386 11.82521,1.341862 4.13569,5.07141 2.26197,12.581065 -2.7676,16.270138 -6.70363,4.91696 -16.17484,2.41962 -20.71508,-4.193322 -5.71341,-8.321716 -2.58238,-19.778255 5.61906,-25.160014 9.93305,-6.51803 23.38713,-2.748153 29.60495,7.044789 7.32749,11.540644 2.91582,26.999407 -8.47052,34.049887 -13.14597,8.14005 -30.61397,3.08474 -38.49482,-9.89625 -8.95473,-14.749829 -3.25454,-34.230126 11.32198,-42.939761 16.35266,-9.770895 37.84744,-3.424983 47.3847,12.747716 10.58815,17.954761 3.5959,41.465635 -14.17345,51.829625" />
  </g>
</svg>
